<svg width="32" height="32" viewBox="0 0 32 32" fill="none" xmlns="http://www.w3.org/2000/svg">
<path d="M30.2 28.2321L20.925 18.9571C22.3643 17.0964 23.1429 14.8214 23.1429 12.4285C23.1429 9.56423 22.025 6.87852 20.0036 4.85352C17.9822 2.82852 15.2893 1.71423 12.4286 1.71423C9.56787 1.71423 6.87501 2.83209 4.85358 4.85352C2.82858 6.87495 1.71429 9.56423 1.71429 12.4285C1.71429 15.2892 2.83215 17.9821 4.85358 20.0035C6.87501 22.0285 9.56429 23.1428 12.4286 23.1428C14.8214 23.1428 17.0929 22.3642 18.9536 20.9285L28.2286 30.1999C28.2558 30.2272 28.2881 30.2487 28.3236 30.2635C28.3592 30.2782 28.3973 30.2858 28.4357 30.2858C28.4742 30.2858 28.5123 30.2782 28.5478 30.2635C28.5834 30.2487 28.6157 30.2272 28.6429 30.1999L30.2 28.6464C30.2272 28.6192 30.2488 28.5869 30.2635 28.5513C30.2783 28.5158 30.2858 28.4777 30.2858 28.4392C30.2858 28.4008 30.2783 28.3627 30.2635 28.3271C30.2488 28.2916 30.2272 28.2593 30.2 28.2321ZM18.0857 18.0857C16.5714 19.5964 14.5643 20.4285 12.4286 20.4285C10.2929 20.4285 8.28572 19.5964 6.77144 18.0857C5.26072 16.5714 4.42858 14.5642 4.42858 12.4285C4.42858 10.2928 5.26072 8.28209 6.77144 6.77138C8.28572 5.26066 10.2929 4.42852 12.4286 4.42852C14.5643 4.42852 16.575 5.25709 18.0857 6.77138C19.5964 8.28566 20.4286 10.2928 20.4286 12.4285C20.4286 14.5642 19.5964 16.5749 18.0857 18.0857Z" fill="#D2D2D2"/>
</svg>
